<?xml version="1.0" encoding="UTF-8"?>
<svg id="Layer_1" xmlns="http://www.w3.org/2000/svg" xmlns:xlink="http://www.w3.org/1999/xlink" version="1.1" viewBox="0 0 32 32">
  <!-- Generator: Adobe Illustrator 29.0.0, SVG Export Plug-In . SVG Version: 2.1.0 Build 186)  -->
  <defs>
    <style>
      .st0 {
        fill: url(#radial-gradient);
      }

      .st1 {
        fill: #fff;
      }
    </style>
    <radialGradient id="radial-gradient" cx="15.918" cy="31.311" fx="15.918" fy="31.311" r="31.394" gradientTransform="translate(-34.437 47.113) rotate(-89.868) scale(1 1.607)" gradientUnits="userSpaceOnUse">
      <stop offset="0" stop-color="#099"/>
      <stop offset=".024" stop-color="#009197"/>
      <stop offset=".137" stop-color="#006f90"/>
      <stop offset=".246" stop-color="#00578b"/>
      <stop offset=".346" stop-color="#004988"/>
      <stop offset=".43" stop-color="#004487"/>
      <stop offset=".575" stop-color="#112f7c"/>
      <stop offset=".851" stop-color="#2f0d6c"/>
      <stop offset="1" stop-color="#3b0066"/>
    </radialGradient>
  </defs>
  <rect class="st0" x="0" y="0" width="32" height="32" rx="12" ry="12"/>
  <path class="st1" d="M12.849,18.926c.18,1.437,1.108,2.215,3.263,2.215,1.617,0,2.545-.479,2.545-1.557,0-.988-.838-1.407-3.233-2.006-3.383-.868-5.538-2.066-5.538-5.089,0-2.874,2.365-4.85,6.137-4.85,4.101,0,6.197,2.066,6.197,4.91h-3.592c-.12-1.227-1.048-1.916-2.575-1.916-1.347,0-2.215.419-2.215,1.467s.808,1.407,3.203,2.006c3.712.898,5.628,2.245,5.628,5.149,0,2.934-2.545,4.88-6.556,4.88-4.281,0-6.766-1.886-6.856-5.209h3.592Z"/>
</svg>